<?xml version="1.0" encoding="UTF-8"?>
<svg id="Layer_2" data-name="Layer 2" xmlns="http://www.w3.org/2000/svg" viewBox="0 0 2997.75 2182.88">
  <defs>
    <style>
      .cls-1 {
        fill: #78c480;
      }
    </style>
  </defs>
  <g id="_Ñëîé_1" data-name="Ñëîé 1">
    <g>
      <path class="cls-1" d="M2421.88,1745.21c5.49,2.32,12.77,4.29,21.68,4.29s18.9-1.87,30.49-7.11c30.63-13.85,57.49-44.57,74.63-67.9,23.88-32.5,44.12-71.68,56.99-110.3,13.65-40.95,9.62-79.04-10.77-101.9-12.53-14.05-30.03-20.33-46.83-16.79-20.33,4.28-32.19,20.88-47.21,41.9-14.65,20.5-32.87,46.01-62.6,67.52-38.45,27.82-57.95,74.75-52.17,125.52,1.78,15.69,8.85,53.4,35.8,64.79ZM2447.8,1654.62c1.46-14.64,7.32-35.08,26.95-49.28,37.69-27.27,60.96-59.66,76.41-81.28-.53,5.62-1.88,12.42-4.55,20.43-12.4,37.21-33.02,75.14-56.55,104.07-17.15,21.08-31.5,31.95-39.92,36.33-1.93-6.98-3.59-17.69-2.33-30.27Z"/>
      <path class="cls-1" d="M2911.96,666.59c-54.97-129.97-133.67-246.69-233.89-346.92-100.23-100.23-216.95-178.92-346.92-233.89C2196.58,28.86,2053.64,0,1906.31,0c-98.09,0-195.35,13.02-289.07,38.7-90.9,24.9-178.36,61.66-259.97,109.25-14.85,8.66-19.87,27.72-11.21,42.57,8.66,14.85,27.72,19.87,42.57,11.21,156.47-91.25,335.49-139.48,517.69-139.48,22.12,0,44.09.7,65.87,2.08-29.12,20.6-52.16,46.81-74.56,72.32-23.38,26.62-47.55,54.14-79.17,76.07-25.8,17.9-62.23,30.79-97.47,43.26-31.46,11.13-61.18,21.65-85.49,36.04-17.61,10.42-39.18,28.28-56.29,46.61-24.35,26.07-37.96,50.67-40.45,73.12-2.2,19.81,4.35,38.05,18.47,51.36,24,22.63,60.02,12.73,71.85,9.47,20.86-5.74,44.26-15.76,69.03-26.37,33.02-14.14,67.16-28.77,92.85-32.05,30.05-3.83,69.73,12.67,111.74,30.14,53,22.04,113.07,47.03,178.06,42.72,68.21-4.5,111,32.21,126.94,65.02,9.17,18.87,6.87,30.58,5.43,32.19-11.24,9.18-21.87,6.76-55.24-6.98-32.28-13.3-72.46-29.85-121.13-14.88l-3.01.93c-19.3,5.95-45.73,14.11-70.36,16.63-21.43,2.19-36.53-.52-42.5-7.62-9.41-11.19-10.45-18.04-12.16-29.4-2.13-14.1-5.05-33.4-23.64-54.91-25.34-29.32-77.28-34.39-154.4-15.09-61.93,15.5-131.46,45.41-186.06,80.02-51.34,31.49-95.41,68.91-131.02,111.23-37.36,44.41-64.74,93.48-81.38,145.84-17.4,54.75-19.72,121.45-6.21,178.41,7.88,33.21,20.74,62.07,38.25,85.78,20.38,27.61,46.45,47.46,77.48,58.99,39.63,14.73,77.85,4.18,111.57-5.12,19.6-5.41,38.11-10.5,54.98-10.41,108.89.71,165.02,89.2,188.79,141.89,32.9,72.94,39.48,149.5,46.45,230.56,3.21,37.39,6.54,76.05,12.63,114.71,10.23,64.91,31.11,155.86,93.98,196.05,20.26,12.95,42.87,19.44,67.58,19.44,14.64,0,30.01-2.28,46.06-6.84,55.8-15.86,96.82-47.22,125.41-95.89,6.87-11.69,13.01-23.6,18.96-35.12,11.21-21.73,21.8-42.25,35.91-59.09,12.5-14.93,28.42-27.76,45.28-41.34,11.96-9.63,24.32-19.59,36.04-30.81,43.24-41.37,52.57-87.14,56.01-126.45,1.15-13.16,1.19-26.7,1.22-39.79.08-26.8.15-52.12,9.02-71.04,17.8-37.97,57.93-80.39,96.73-121.41,34.24-36.19,66.58-70.38,86.23-103.62,34.53-58.43,16.45-96.01-4.79-117.26-26.83-26.84-60.42-24.73-90.04-22.87-23.06,1.45-46.91,2.94-74.68-5.62-49.87-15.37-76.29-63.25-87.61-90.42-13-31.23-17.45-60.1-17.97-80.05,3.05,5.33,6.06,10.87,8.59,15.55,12.62,23.28,28.32,52.25,51.79,76.47,28.91,29.84,64.25,46.55,105.03,49.67,66.08,5.06,112.8-17.41,137.91-29.47,33.41-16.07,53.62-36.18,61.76-61.5,11.87-36.87-6.81-71.07-20.45-96.04-2.52-4.62-5.81-10.64-8.19-15.66,6.76.08,17.07,4.52,33.73,21.7,25.3,26.11,53.1,70.07,82.53,116.62,51.27,81.08,108.94,172.28,183.08,219.81.15,7.18.24,14.38.24,21.6,0,567.5-461.69,1029.19-1029.19,1029.19-227.16,0-439.87-73.78-612.35-201.2-32.91-71.9-40.46-153.24-48.43-239.23-6.49-70.02-13.2-142.42-34.54-212.09-24.64-80.45-65.78-145.8-125.77-199.79-12.78-11.5-32.46-10.46-43.96,2.31-11.5,12.78-10.46,32.46,2.31,43.96,115.16,103.65,127.21,233.68,139.97,371.35,4.91,53.02,9.93,107.11,21.44,159.67-142.06-132.01-247.47-304.88-297.19-503.78-11.32-45.29-19.61-91.87-24.65-138.45-3.99-36.92-6.02-74.58-6.02-111.95,0-17.39.44-34.99,1.31-52.3,1.5-30.06,4.3-59.84,8.34-89.34,62.5-11.47,117.98-36.53,165.18-74.68,50.09-40.49,88.38-93.56,113.82-157.74,35.02-88.36,42.63-190.69,22-295.93-21.53-109.85-73.21-216.72-149.46-309.06-6.71-8.13-17.08-12.31-27.56-11.1-10.48,1.21-19.63,7.64-24.32,17.08-21.6,43.51-63.58,94.15-108.03,147.76-54.62,65.88-116.53,140.56-159.94,224.06-20.54,39.52-33.36,82.62-38.1,128.09-4.94,47.39-.79,94.98,12.33,141.45,4.67,16.54,21.87,26.17,38.41,21.5,16.54-4.67,26.17-21.87,21.5-38.41-21.32-75.51-13.63-157.12,21.09-223.92,40.34-77.6,100-149.56,152.63-213.04,34.04-41.06,66.71-80.47,91.55-118.13,114.91,159.43,150.5,354.11,90.02,506.71-38.99,98.37-112.64,164.33-209.85,189.19,18.35-89.75,48.68-176.41,90.76-258.96,7.81-15.32,1.72-34.06-13.59-41.87-15.32-7.81-34.06-1.72-41.87,13.59-34.21,67.12-61.48,137.98-81.03,210.62-20.05,74.47-32.18,151.52-36.06,229.02-.92,18.34-1.38,36.98-1.38,55.41,0,25.21.88,50.55,2.6,75.73-23.51-32.78-52.32-66.78-87.22-98.7-3.48-3.18-6.96-6.28-10.44-9.33-3.36-133.99-63.76-236.41-170.95-289.19-36.96-18.2-78.46-29.89-123.37-34.74-43.7-4.73-89.74-2.89-136.87,5.45-96.71,17.12-192.31,60.38-276.47,125.13-8.36,6.43-12.89,16.65-12.05,27.16.85,10.51,6.95,19.88,16.23,24.89,35.93,19.41,77.61,56.47,121.73,95.7,54.65,48.59,116.59,103.67,186.83,143.32,33.54,18.94,70.4,31.3,109.55,36.75,14.79,2.06,29.63,3.09,44.48,3.09,26.1,0,52.21-3.18,78.03-9.51,16.69-4.1,26.91-20.95,22.81-37.65-4.1-16.69-20.95-26.91-37.65-22.81-63.78,15.65-131.8,6.87-186.63-24.08-64.45-36.38-123.75-89.11-176.07-135.63-32.14-28.58-63.06-56.06-92.94-77.89,145.23-96.21,315.48-122.11,434.87-63.32,72.32,35.61,117,98.09,131.32,182.56-9.79-6.29-19.72-12.22-29.83-17.79-43.82-24.16-91.85-42-142.75-53.03-16.8-3.64-33.37,7.03-37.01,23.83-3.64,16.8,7.03,33.37,23.83,37.01,84.43,18.28,154.75,55.15,221.32,116.03,60.68,55.5,100.77,118.73,123.71,162,24.2,45.64,34.99,79.38,35.84,82.09,29.3,116.48,77.47,226.72,143.22,327.7,64.91,99.7,145.19,187.73,238.59,261.63,94.32,74.63,199.38,132.74,312.26,172.71,116.8,41.36,239.41,62.34,364.44,62.34,147.33,0,290.27-28.86,424.85-85.78,129.97-54.97,246.69-133.67,346.92-233.89,100.23-100.23,178.92-216.95,233.89-346.92,56.92-134.58,85.78-277.52,85.78-424.85s-28.86-290.27-85.78-424.85ZM2804.79,816.76c-31.2-49.34-60.67-95.95-90.45-126.67-18.29-18.88-35.83-30.87-53.61-36.69-22.82-7.46-45.97-4.55-66.96,8.41-.55.34-1.09.7-1.62,1.08-17.91,12.67-25.14,32.85-19.84,55.36,3.13,13.28,9.94,25.76,17.16,38.96,9.14,16.74,19.5,35.71,15.83,47.13-2.53,7.85-13,16.54-29.48,24.46-21.23,10.21-56.76,27.29-106.18,23.51-58.46-4.48-84.17-51.9-106.84-93.73-9-16.6-17.5-32.29-27.72-44.12-20.93-24.24-43.11-25-58.03-21.37-14.19,3.45-38.22,17.18-39.83,70.34-1.24,41.23,10.51,90.65,31.45,132.19,27.59,54.73,68.41,91.75,118.05,107.05,38.64,11.91,70.95,9.88,96.91,8.26,25.52-1.6,35.77-1.6,42.13,4.76,4.65,4.65,12.43,12.44-4.78,41.57-16.09,27.22-46.09,58.94-77.86,92.52-42.19,44.6-85.82,90.72-107.88,137.76-14.72,31.39-14.82,66.4-14.91,97.28-.04,12.35-.07,24.01-.99,34.55-3.57,40.93-13.61,64.48-37.03,86.89-9.81,9.39-20.62,18.1-32.06,27.32-18.45,14.87-37.54,30.24-53.96,49.86-18.53,22.13-31.22,46.72-43.49,70.5-5.82,11.27-11.31,21.91-17.31,32.14-20.64,35.13-48.01,55.96-88.75,67.54-25.62,7.28-46.26,5.59-63.09-5.17-30.88-19.74-53.09-71.32-66.02-153.29-5.75-36.49-8.98-74.04-12.1-110.35-7.11-82.69-14.46-168.2-51.73-250.82-23.24-51.52-55.76-94.78-94.04-125.11-44.29-35.09-95.13-53.07-151.09-53.43-25.5-.16-49.11,6.35-71.94,12.65-28.2,7.78-52.55,14.5-73.32,6.78-86.41-32.11-97.34-165.83-71.87-245.97,28.17-88.64,92.42-165.74,185.81-222.98.14-.08.28-.17.41-.26,48.37-30.69,110.18-57.48,165.36-71.65,65.8-16.9,91.6-8.41,94.85-5.27,6.82,7.9,7.57,12.79,9.19,23.51,2.27,15,5.38,35.54,26.07,60.15,43.8,52.08,131.66,24.98,178.85,10.41l2.97-.92c27.31-8.4,52.47,1.96,79.11,12.94,17.01,7.01,34.59,14.25,53.15,16.49,24.34,2.94,46.27-3.41,65.18-18.86,25.23-20.61,31.23-57.94,15.66-97.43-12.29-31.16-35.9-59.29-66.5-79.22-35.71-23.26-78.94-33.94-125.01-30.89-50.44,3.34-101.07-17.72-150.04-38.09-49.89-20.75-97.01-40.34-143.53-34.41-34.33,4.38-72.53,20.75-109.48,36.58-19.02,8.15-36.99,15.85-52.26,20.9-9.58,3.17-15.88,4.53-19.86,5.09,1.9-5.68,7.28-16.08,20.28-30.63,15.45-17.29,34.39-32.21,45.45-38.76,19.09-11.3,46.03-20.83,74.55-30.92,39.1-13.83,79.53-28.14,112.19-50.79,37.88-26.28,65.81-58.08,90.46-86.14,52.01-59.21,89.68-102.08,196.77-88.44,421.57,98.77,744.21,457.42,789,897.05-46.37-44.64-87.74-110.06-125.38-169.58Z"/>
    </g>
  </g>
</svg>